<svg width="175" height="45" viewBox="0 0 175 45" fill="none" xmlns="http://www.w3.org/2000/svg">
<path d="M99.1375 14.925C99.1375 9.85 99.225 5.125 99.4875 0.75L86.1 3.2875V4.5125L87.4125 4.6875C88.375 4.775 88.9875 5.125 89.3375 5.65C89.6875 6.2625 89.95 7.1375 90.125 8.45C90.3 10.9875 90.475 16.7625 90.3875 25.8625C90.3875 34.875 90.3 40.5625 90.125 42.75C94.9375 43.8 98.7 44.2375 101.5 44.2375C106.75 44.2375 110.863 42.75 113.838 39.6875C116.813 36.7125 118.388 32.5125 118.388 27.35C118.388 23.2375 117.25 19.825 114.975 17.1125C112.7 14.4 109.812 13.0875 106.4 13.0875C104.125 13.0875 101.763 13.7 99.1375 14.925ZM99.4 41.875C99.225 39.075 99.05 30.675 99.05 16.9375C99.8375 16.675 100.888 16.5 102.2 16.5C104.3 16.5 105.963 17.55 107.188 19.7375C108.412 21.925 109.025 24.55 109.025 27.875C109.025 31.9875 108.325 35.3125 106.925 38.1125C105.525 40.825 103.775 42.225 101.588 42.225C100.887 42.05 100.188 41.9625 99.4 41.875ZM35.875 1.625H0.875V3.375L2.7125 3.55C4.1125 3.8125 5.075 4.3375 5.6875 5.125C6.3 6 6.65 7.4 6.7375 9.325C7.4375 18.775 7.4375 27.6125 6.7375 35.75C6.5625 37.675 6.2125 39.075 5.6875 39.95C5.075 40.825 4.1125 41.35 2.7125 41.525L0.875 41.7875V43.5375H23.45V41.7875L21.0875 41.6125C19.6875 41.4375 18.725 40.825 18.1125 40.0375C17.5 39.1625 17.15 37.7625 17.0625 35.8375C16.8 32.3375 16.625 28.3125 16.625 23.85L21.35 23.9375C23.8875 24.025 25.6375 25.95 26.5125 29.8H28.2625V15.5375H26.5125C25.6375 19.3 23.975 21.225 21.35 21.3125L16.625 21.4C16.625 13.525 16.8 7.925 17.0625 4.5125H23.975C28.875 4.5125 32.2 7.6625 34.125 13.9625L36.225 13.35L35.875 1.625ZM31.7625 28.575C31.7625 33.125 33.075 36.8875 35.6125 39.8625C38.15 42.8375 41.9125 44.2375 46.6375 44.2375C51.3625 44.2375 55.2125 42.75 58.0125 39.6875C60.8125 36.7125 62.125 32.95 62.125 28.4C62.125 23.85 60.8125 20.0875 58.275 17.1125C55.7375 14.1375 51.975 12.7375 47.25 12.7375C42.525 12.7375 38.675 14.225 35.875 17.2875C33.075 20.2625 31.7625 24.025 31.7625 28.575ZM51.275 18.6C52.325 21.1375 52.7625 24.4625 52.7625 28.4875C52.7625 37.7625 50.8375 42.3125 47.075 42.3125C45.15 42.3125 43.6625 41 42.6125 38.375C41.5625 35.75 41.125 32.425 41.125 28.4875C41.125 19.3 43.05 14.75 46.8125 14.75C48.7375 14.6625 50.225 15.975 51.275 18.6ZM125.213 39.8625C128.1 42.75 131.775 44.2375 136.15 44.2375C138.863 44.2375 141.225 43.7125 143.325 42.575C145.425 41.525 147.087 40.2125 148.225 38.6375L147.35 37.5875C145.425 39.075 143.238 39.775 140.7 39.775C137.2 39.775 134.488 38.6375 132.65 36.275C130.725 33.9125 129.85 30.9375 130.025 27.0875H148.75C148.75 22.8875 147.7 19.475 145.512 16.7625C143.325 14.1375 140.262 12.825 136.325 12.825C131.425 12.825 127.663 14.4 124.95 17.4625C122.238 20.525 120.925 24.2875 120.925 28.75C120.925 33.3 122.325 36.975 125.213 39.8625ZM131.688 17.9C132.65 15.8 133.875 14.75 135.537 14.75C138.162 14.75 139.475 18.075 139.475 24.8125L130.2 24.9875C130.288 22.3625 130.725 20 131.688 17.9ZM172.287 14.4C169.925 13.35 166.95 12.7375 163.363 12.7375C159.688 12.7375 156.8 13.7 154.613 15.5375C152.425 17.375 151.287 19.65 151.287 22.3625C151.287 24.725 151.988 26.5625 153.3 27.875C154.613 29.1875 156.712 30.325 159.425 31.2875C161.875 32.1625 163.625 33.0375 164.5 33.825C165.375 34.7 165.9 35.6625 165.9 36.975C165.9 38.2 165.462 39.3375 164.5 40.2125C163.625 41.175 162.4 41.6125 160.825 41.6125C156.975 41.6125 154.088 38.8125 152.075 33.2125L150.588 33.65L150.938 42.4C154.087 43.625 157.587 44.2375 161.438 44.2375C165.462 44.2375 168.525 43.3625 170.8 41.525C173.075 39.775 174.213 37.2375 174.213 34.0875C174.213 31.9875 173.688 30.2375 172.55 28.925C171.412 27.6125 169.575 26.475 166.95 25.425C164.062 24.375 162.05 23.4125 161 22.5375C159.95 21.6625 159.425 20.6125 159.425 19.3C159.425 17.9875 159.775 16.9375 160.562 16.0625C161.35 15.1875 162.312 14.8375 163.537 14.8375C167.037 14.8375 169.575 17.375 171.15 22.3625L172.637 21.925L172.287 14.4ZM88.1125 13.6125C86.8875 13 85.575 12.7375 84.0875 12.7375C82.6 12.7375 81.1125 13.35 79.45 14.575C77.7875 15.8 76.5625 17.4625 75.6 19.7375L75.6875 12.7375L62.3875 15.3625V16.5875L63.7 16.675C65.3625 16.85 66.325 18.1625 66.5 20.525C67.025 25.95 67.025 31.725 66.5 37.85C66.325 40.2125 65.3625 41.4375 63.7 41.7L62.3875 41.875V43.5375H80.9375V41.875L78.575 41.7C76.9125 41.525 75.95 40.2125 75.775 37.85C75.25 32.775 75.1625 27.35 75.6 21.75C76.125 20.875 77.2625 20.35 79.0125 20.175C80.7625 20 82.775 20.525 84.875 21.75L88.1125 13.6125Z" fill="white" fill-opacity="0.5"/>
</svg>
