<svg width="168" height="57" viewBox="0 0 168 57" fill="none" xmlns="http://www.w3.org/2000/svg">
<path fill-rule="evenodd" clip-rule="evenodd" d="M157.638 0H10.2604C1.46416 0 0 3.08487 0 10.4213V46.6441C0 53.975 3.01274 57 10.2503 57H157.638C164.881 57 168 53.9708 168 46.6347V10.4213C168 3.08487 164.881 0 157.638 0Z" fill="black"/>
<path fill-rule="evenodd" clip-rule="evenodd" d="M43.8009 35.4802C42.9548 37.3799 42.5498 38.2278 41.4605 39.9066C39.9401 42.2508 37.798 45.1697 35.1436 45.1942C32.7841 45.2164 32.1785 43.6391 28.9772 43.6569C25.7759 43.6745 25.1073 45.2219 22.7478 45.2001C20.0931 45.1754 18.063 42.539 16.5427 40.1957C12.2919 33.6415 11.8478 25.9497 14.469 21.8608C16.3324 18.9546 19.2708 17.2535 22.0348 17.2535C24.8484 17.2535 26.6173 18.8166 28.9436 18.8166C31.2001 18.8166 32.5759 17.251 35.8285 17.251C38.2874 17.251 40.8928 18.6067 42.7494 20.9525C36.6671 24.3285 37.6548 33.1278 43.8009 35.4802Z" fill="white"/>
<path fill-rule="evenodd" clip-rule="evenodd" d="M33.3614 14.6335C34.5425 13.0971 35.4407 10.9265 35.115 8.70898C33.1849 8.8436 30.9259 10.0877 29.6071 11.7097C28.4102 13.1825 27.4223 15.3664 27.8071 17.4887C29.9146 17.5547 32.0951 16.2798 33.3614 14.6335Z" fill="white"/>
<path fill-rule="evenodd" clip-rule="evenodd" d="M152.999 38.5588H144.452C144.486 39.7323 144.899 40.7614 145.693 41.4365C146.412 42.0433 147.343 42.3201 148.487 42.3201C149.755 42.3201 150.904 42.1027 151.943 41.6869L152.391 43.6865C151.182 44.2253 149.746 44.4826 148.09 44.4826C146.107 44.4826 144.546 43.8923 143.411 42.7086C142.278 41.525 141.707 39.9343 141.707 37.9414C141.707 35.9787 142.237 34.3524 143.289 33.0466C144.402 31.6596 145.896 30.9664 147.775 30.9664C149.626 30.9664 151.023 31.6593 151.969 33.0462C152.722 34.1535 153.103 35.572 153.103 37.193C153.103 37.7055 153.066 38.2235 152.999 38.5588ZM140.855 33.7958C140.689 33.7438 140.25 33.7225 139.936 33.7225C138.934 33.7225 138.151 34.1048 137.605 34.8692C137.129 35.5474 136.882 36.3895 136.882 37.431V44.0912H134.068V35.3423C134.068 33.8551 134.007 32.5235 133.957 31.1823H136.436L136.542 33.8647H136.619C136.917 33.0265 137.389 32.2642 138.044 31.7518C138.677 31.2834 139.388 31.0288 140.126 31.0288C140.386 31.0288 140.689 31.0123 140.855 31.0474V33.7958ZM130.556 42.5636C129.374 43.8781 127.81 44.5363 125.862 44.5363C123.978 44.5363 122.475 43.9044 121.359 42.6397C120.244 41.3788 119.688 39.7786 119.688 37.8577C119.688 35.8474 120.262 34.1978 121.414 32.9175C122.567 31.6301 124.114 30.9978 126.066 30.9978C127.954 30.9978 129.465 31.6232 130.608 32.894C131.695 34.1158 132.24 35.706 132.24 37.645C132.24 39.6453 131.681 41.2774 130.556 42.5636ZM118.841 33.5294H115.861V39.7313C115.861 41.333 116.352 42.127 117.46 42.127C117.97 42.127 118.354 42.0893 118.692 42.0013L118.756 44.1865C118.192 44.4001 117.446 44.5086 116.532 44.5086C115.412 44.5086 114.497 44.1659 113.866 43.4663C113.227 42.7751 112.882 41.607 112.882 39.9685V33.5294H111.061V31.1823H112.882V28.8829L115.861 28.0277V31.1823H118.841V33.5294ZM108.829 42.9314C107.666 43.9837 106.054 44.5066 103.985 44.5066C102.068 44.5066 100.536 44.1309 99.3783 43.3862L100.04 40.9825C101.287 41.727 102.658 42.1049 104.149 42.1049C105.226 42.1049 106.059 41.8566 106.658 41.3706C107.252 40.8826 107.551 40.2286 107.551 39.399C107.551 38.6788 107.305 38.0639 106.816 37.5623C106.319 37.0647 105.508 36.605 104.363 36.1737C101.255 35.0017 99.6972 33.2831 99.6972 31.0217C99.6972 29.5441 100.24 28.3291 101.341 27.3863C102.44 26.4448 103.895 25.9712 105.708 25.9712C107.325 25.9712 108.671 26.2584 109.745 26.8243L109.026 29.1763C108.024 28.6257 106.885 28.3466 105.615 28.3466C104.611 28.3466 103.824 28.6054 103.257 29.0924C102.784 29.5439 102.546 30.0869 102.546 30.7258C102.546 31.4335 102.819 32.0239 103.363 32.4937C103.839 32.9192 104.701 33.3795 105.945 33.8776C107.48 34.496 108.601 35.2308 109.324 36.0704C110.043 36.9068 110.406 37.9469 110.406 39.1915C110.405 40.725 109.876 41.9749 108.829 42.9314ZM92.3716 42.8308C91.3101 43.9658 89.9858 44.5361 88.4103 44.5361C86.7141 44.5361 85.5718 43.923 84.7442 42.6893V49.6235H81.9304V35.5251C81.9304 34.1373 81.878 32.8588 81.8095 31.1823H84.3083L84.4731 33.3617H84.5221C85.4781 31.8529 86.9147 31.0207 88.8489 31.0207C90.3619 31.0207 91.6235 31.6095 92.6339 32.8234C93.6476 34.0315 94.1519 35.6235 94.1519 37.5989C94.1519 39.8131 93.56 41.5456 92.3716 42.8308ZM78.2892 42.8308C77.2304 43.9658 75.9083 44.5361 74.337 44.5361C72.6357 44.5361 71.5029 43.923 70.6753 42.6893V49.6235H67.8615V35.5251C67.8615 34.1373 67.7963 32.8588 67.7239 31.1823H70.2295L70.3869 33.3617H70.4366C71.3911 31.8529 72.8305 31.0207 74.7673 31.0207C76.2792 31.0207 77.5374 31.6095 78.5546 32.8234C79.5621 34.0315 80.0694 35.6235 80.0694 37.5989C80.0694 39.8131 79.4775 41.5456 78.2892 42.8308ZM63.0568 44.0912L61.397 38.8941H55.6195L54.0348 44.0912H51.084L56.8021 26.1529H60.34L66.0924 44.0912H63.0568ZM147.564 32.9661C146.634 32.9661 145.879 33.4486 145.296 34.2275C144.822 34.8493 144.538 35.5412 144.452 36.547H150.386C150.401 35.5412 150.221 34.8786 149.835 34.252C149.34 33.4536 148.582 32.9661 147.564 32.9661ZM58.4932 28.6676H58.4435C58.2645 29.5059 57.987 30.6216 57.5966 32.1195L56.1195 36.8823H60.8917L59.3948 32.1195C59.2327 31.6365 58.9305 30.3441 58.4932 28.6676ZM87.9266 33.2871C87.2209 33.2871 86.5904 33.5213 86.0166 33.9928C85.445 34.4711 85.0599 35.0897 84.8829 35.8558C84.7954 36.2149 84.7442 36.506 84.7442 36.7393V38.8998C84.7442 39.8455 85.0355 40.645 85.6094 41.295C86.1796 41.9389 86.9287 42.266 87.8389 42.266C88.9173 42.266 89.7534 41.8501 90.352 41.011C90.951 40.1734 91.2527 39.0698 91.2527 37.6947C91.2527 36.4337 90.9698 35.3906 90.4091 34.5737C89.789 33.7225 88.9623 33.2871 87.9266 33.2871ZM125.962 33.1076C124.822 33.1076 123.951 33.6199 123.356 34.6516C122.841 35.5004 122.588 36.5371 122.588 37.7628C122.588 38.9576 122.841 39.9761 123.356 40.8271C123.965 41.8568 124.828 42.3691 125.94 42.3691C127.023 42.3691 127.88 41.8497 128.492 40.7949C129.023 39.9333 129.288 38.8995 129.288 37.713C129.288 36.5251 129.033 35.5004 128.527 34.6515C127.921 33.6199 127.071 33.1076 125.962 33.1076ZM73.8405 33.2871C73.1385 33.2871 72.5042 33.5213 71.931 33.9928C71.3582 34.4711 70.9843 35.0897 70.8074 35.8558C70.7208 36.2149 70.6754 36.506 70.6754 36.7393V38.8998C70.6754 39.8455 70.9578 40.645 71.533 41.295C72.1032 41.9389 72.8483 42.266 73.761 42.266C74.8312 42.266 75.6729 41.8501 76.2696 41.011C76.8673 40.1734 77.1637 39.0698 77.1637 37.6947C77.1637 36.4337 76.886 35.3906 76.3225 34.5737C75.704 33.7225 74.8791 33.2871 73.8405 33.2871Z" fill="white"/>
<path d="M54.8367 19.0849L54.0472 21.7185H52.3184L55.2588 12.4253H57.3959L60.3772 21.7185H58.5804L57.75 19.0849H54.8367ZM57.4641 17.8027L56.7426 15.5139C56.5657 14.9485 56.4159 14.3143 56.2797 13.7765H56.2525C56.1163 14.3143 55.9801 14.9625 55.8169 15.5139L55.109 17.8027H57.4641Z" fill="white"/>
<path d="M62.2831 15.0039L63.3586 18.4095C63.5491 19.0025 63.6852 19.5403 63.8077 20.0917H63.8485C63.971 19.5403 64.1208 19.0162 64.2978 18.4095L65.346 15.0039H67.1157L64.5836 21.7187H62.9365L60.4727 15.0039H62.2831Z" fill="white"/>
<path d="M71.7866 21.7185L71.6777 20.974H71.6368C71.2285 21.4979 70.5342 21.8703 69.6766 21.8703C68.3426 21.8703 67.5938 20.8914 67.5938 19.8709C67.5938 18.1752 69.0776 17.3202 71.5279 17.3339V17.2236C71.5279 16.7823 71.351 16.0516 70.1803 16.0516C69.5268 16.0516 68.8462 16.2584 68.397 16.548L68.0703 15.445C68.5604 15.1416 69.4179 14.8521 70.4661 14.8521C72.5897 14.8521 73.2023 16.217 73.2023 17.6787V20.1054C73.2023 20.712 73.2296 21.305 73.2977 21.7185H71.7866ZM71.5688 18.437C70.3845 18.4094 69.2546 18.6714 69.2546 19.6917C69.2546 20.3536 69.6766 20.6568 70.2074 20.6568C70.8745 20.6568 71.3646 20.2156 71.5144 19.7331C71.5551 19.609 71.5688 19.4711 71.5688 19.3608V18.437Z" fill="white"/>
<path d="M76.6606 11.9292H74.9727V21.7188H76.6606V11.9292Z" fill="white"/>
<path d="M80.2535 13.129C80.2535 13.6391 79.886 14.039 79.3006 14.039C78.7425 14.039 78.375 13.6391 78.375 13.129C78.375 12.6051 78.756 12.2051 79.3142 12.2051C79.886 12.2051 80.2399 12.6051 80.2535 13.129ZM78.4702 15.0041H80.1581V21.7189H78.4702V15.0041Z" fill="white"/>
<path d="M81.9004 21.7188C81.9275 21.2638 81.9548 20.5193 81.9548 19.8299V11.9292H83.6292V15.9278H83.6565C84.0649 15.2798 84.7863 14.8523 85.7801 14.8523C87.4 14.8523 88.5568 16.2173 88.5433 18.258C88.5433 20.671 87.0322 21.8705 85.5348 21.8705C84.6773 21.8705 83.9149 21.5396 83.4385 20.7122H83.4112L83.3295 21.7188H81.9004ZM83.6292 18.9474C83.6292 19.0852 83.6428 19.2232 83.6701 19.3472C83.847 20.0229 84.4323 20.533 85.1538 20.533C86.202 20.533 86.8419 19.6782 86.8419 18.3269C86.8419 17.1412 86.2838 16.176 85.1674 16.176C84.4868 16.176 83.8742 16.6724 83.6837 17.417C83.6565 17.541 83.6292 17.6927 83.6292 17.8582V18.9474Z" fill="white"/>
<path d="M91.6079 11.9292H89.9199V21.7188H91.6079V11.9292Z" fill="white"/>
<path d="M94.6024 18.8369C94.6433 20.0503 95.5826 20.5742 96.6444 20.5742C97.4204 20.5742 97.9787 20.4639 98.4823 20.2707L98.7273 21.4428C98.1554 21.6773 97.3659 21.8563 96.4132 21.8563C94.2623 21.8563 92.9961 20.519 92.9961 18.4647C92.9961 16.6033 94.1123 14.8521 96.2361 14.8521C98.387 14.8521 99.0947 16.6445 99.0947 18.1198C99.0947 18.437 99.0676 18.6851 99.0405 18.8369H94.6024ZM97.5157 17.6511C97.5291 17.0306 97.257 16.0103 96.1406 16.0103C95.1059 16.0103 94.6705 16.9617 94.6023 17.6511H97.5157Z" fill="white"/>
<path d="M109.563 18.2992C109.563 20.7673 107.847 21.8703 106.159 21.8703C104.281 21.8703 102.838 20.5604 102.838 18.4095C102.838 16.2033 104.267 14.8521 106.268 14.8521C108.242 14.8521 109.563 16.2586 109.563 18.2992ZM104.567 18.3681C104.567 19.6642 105.193 20.6431 106.214 20.6431C107.167 20.6431 107.834 19.6919 107.834 18.3405C107.834 17.2927 107.371 16.0931 106.228 16.0931C105.043 16.0931 104.567 17.2512 104.567 18.3681Z" fill="white"/>
<path d="M110.939 17.003C110.939 16.2309 110.925 15.5828 110.885 15.0038H112.355L112.437 16.0103H112.477C112.763 15.4863 113.485 14.8521 114.587 14.8521C115.744 14.8521 116.943 15.6103 116.943 17.7337V21.7185H115.268V17.9269C115.268 16.9616 114.914 16.2309 114.002 16.2309C113.335 16.2309 112.872 16.7134 112.695 17.2236C112.641 17.3753 112.627 17.5822 112.627 17.7751V21.7185H110.94V17.003H110.939Z" fill="white"/>
<path d="M123.464 13.0874V15.0039H125.056V16.2725H123.464V19.2369C123.464 20.0505 123.681 20.4778 124.321 20.4778C124.607 20.4778 124.825 20.4364 124.975 20.3951L125.002 21.6912C124.757 21.7876 124.321 21.8567 123.79 21.8567C123.177 21.8567 122.66 21.6498 122.347 21.3051C121.993 20.919 121.83 20.3123 121.83 19.43V16.2725H120.877V15.0039H121.83V13.4872L123.464 13.0874Z" fill="white"/>
<path d="M126.322 11.9292H128.01V15.9277H128.038C128.242 15.6106 128.514 15.3487 128.868 15.1557C129.195 14.9626 129.589 14.8523 130.011 14.8523C131.141 14.8523 132.325 15.6106 132.325 17.7616V21.7188H130.651V17.9546C130.651 16.9757 130.297 16.2449 129.372 16.2449C128.718 16.2449 128.255 16.6862 128.078 17.1962C128.024 17.3341 128.01 17.5135 128.01 17.7065V21.7188H126.322V11.9292H126.322Z" fill="white"/>
<path d="M135.294 18.8369C135.335 20.0503 136.274 20.5742 137.336 20.5742C138.112 20.5742 138.67 20.4639 139.174 20.2707L139.419 21.4428C138.847 21.6773 138.057 21.8563 137.104 21.8563C134.954 21.8563 133.688 20.519 133.688 18.4647C133.688 16.6033 134.804 14.8521 136.927 14.8521C139.078 14.8521 139.786 16.6445 139.786 18.1198C139.786 18.437 139.759 18.6851 139.732 18.8369H135.294ZM138.207 17.6511C138.221 17.0306 137.948 16.0103 136.832 16.0103C135.798 16.0103 135.362 16.9617 135.294 17.6511H138.207Z" fill="white"/>
</svg>
