<svg width="170" height="58" viewBox="0 0 170 58" fill="none" xmlns="http://www.w3.org/2000/svg">
<path fill-rule="evenodd" clip-rule="evenodd" d="M158.78 0.828125H10.952C2.1288 0.828125 0.660156 3.88646 0.660156 11.1598V47.071C0.660156 54.3388 3.68212 57.3378 10.9418 57.3378H158.78C166.045 57.3378 169.174 54.3347 169.174 47.0617V11.1598C169.174 3.88646 166.045 0.828125 158.78 0.828125Z" fill="black"/>
<path d="M83.4525 33.2397C80.3402 33.2397 77.8764 35.5766 77.8764 38.8219C77.8764 41.9376 80.3402 44.4042 83.4525 44.4042C86.5648 44.4042 89.0287 42.0674 89.0287 38.8219C89.0287 35.4466 86.5648 33.2397 83.4525 33.2397ZM83.4525 42.0674C81.7667 42.0674 80.3402 40.6393 80.3402 38.6921C80.3402 36.7447 81.7667 35.3166 83.4525 35.3166C85.1383 35.3166 86.5648 36.615 86.5648 38.6921C86.5648 40.6393 85.1383 42.0674 83.4525 42.0674ZM71.3925 33.2397C68.2803 33.2397 65.8163 35.5766 65.8163 38.8219C65.8163 41.9376 68.2803 44.4042 71.3925 44.4042C74.5048 44.4042 76.9686 42.0674 76.9686 38.8219C76.9686 35.4466 74.5048 33.2397 71.3925 33.2397ZM71.3925 42.0674C69.7066 42.0674 68.2803 40.6393 68.2803 38.6921C68.2803 36.7447 69.7066 35.3166 71.3925 35.3166C73.0783 35.3166 74.5048 36.615 74.5048 38.6921C74.5048 40.6393 73.0783 42.0674 71.3925 42.0674ZM56.9981 34.9274V37.2641H62.5744C62.4447 38.5625 61.926 39.6011 61.2776 40.2501C60.4996 41.0291 59.2028 41.9376 56.9981 41.9376C53.4969 41.9376 50.9034 39.2115 50.9034 35.7062C50.9034 32.2011 53.6265 29.475 56.9981 29.475C58.8138 29.475 60.2401 30.254 61.2776 31.1625L62.9634 29.475C61.5369 28.1766 59.7214 27.1382 57.1278 27.1382C52.4595 27.1382 48.4395 31.0329 48.4395 35.7062C48.4395 40.3797 52.4594 44.2746 57.1278 44.2746C59.7214 44.2746 61.5369 43.4954 63.093 41.8078C64.6492 40.2501 65.168 38.0432 65.168 36.3554C65.168 35.836 65.168 35.3168 65.0383 34.9274H56.9981ZM115.872 36.7448C115.353 35.4466 114.056 33.2397 111.204 33.2397C108.351 33.2397 106.017 35.4466 106.017 38.8219C106.017 41.9376 108.351 44.4042 111.463 44.4042C113.927 44.4042 115.483 42.8464 116.002 41.9376L114.186 40.6393C113.538 41.5482 112.76 42.1972 111.463 42.1972C110.166 42.1972 109.388 41.678 108.74 40.5095L116.131 37.3939L115.872 36.7448ZM108.351 38.5623C108.351 36.4852 110.037 35.3168 111.204 35.3168C112.111 35.3168 113.019 35.836 113.279 36.4852L108.351 38.5623ZM102.256 43.8848H104.72V27.6574H102.256V43.8848ZM98.3655 34.408C97.7171 33.759 96.6797 33.1098 95.3829 33.1098C92.6596 33.1098 90.066 35.5764 90.066 38.6921C90.066 41.8076 92.53 44.1446 95.3829 44.1446C96.6797 44.1446 97.7171 43.4954 98.2359 42.8462H98.3655V43.6252C98.3655 45.7025 97.1984 46.8707 95.3829 46.8707C93.9565 46.8707 92.919 45.8323 92.6597 44.9233L90.5849 45.8323C91.2332 47.2603 92.7893 49.0776 95.5128 49.0776C98.3657 49.0776 100.7 47.3901 100.7 43.3654V33.4993H98.3655V34.408ZM95.5126 42.0674C93.8268 42.0674 92.4003 40.6393 92.4003 38.6921C92.4003 36.7447 93.8268 35.3166 95.5126 35.3166C97.1982 35.3166 98.4952 36.7447 98.4952 38.6921C98.4952 40.6393 97.1984 42.0674 95.5126 42.0674ZM127.154 27.6574H121.318V43.8848H123.782V37.7835H127.154C129.877 37.7835 132.471 35.836 132.471 32.7203C132.471 29.6047 129.877 27.6574 127.154 27.6574ZM127.284 35.4466H123.782V29.8644H127.284C129.099 29.8644 130.137 31.4223 130.137 32.5904C130.007 34.0186 128.969 35.4466 127.284 35.4466ZM142.197 33.1099C140.381 33.1099 138.566 33.8889 137.917 35.5766L140.122 36.4854C140.641 35.5766 141.419 35.317 142.326 35.317C143.623 35.317 144.79 36.0961 144.92 37.394V37.5238C144.531 37.2641 143.493 36.8748 142.456 36.8748C140.122 36.8748 137.788 38.1732 137.788 40.5097C137.788 42.7167 139.733 44.1448 141.808 44.1448C143.493 44.1448 144.272 43.3656 144.92 42.5869H145.05V43.885H147.384V37.6538C147.125 34.7976 144.92 33.1099 142.197 33.1099ZM141.937 42.0674C141.159 42.0674 139.992 41.678 139.992 40.6393C139.992 39.3411 141.419 38.9517 142.586 38.9517C143.623 38.9517 144.142 39.2115 144.79 39.4711C144.531 41.0289 143.234 42.0674 141.937 42.0674ZM155.553 33.4993L152.83 40.5095H152.701L149.848 33.4993H147.254L151.534 43.3654L149.07 48.8181H151.534L158.147 33.4993H155.553ZM133.768 43.8848H136.232V27.6574H133.768V43.8848Z" fill="white"/>
<path d="M52.9611 18.0183H57.0015C57.0246 18.1105 57.0435 18.2219 57.0591 18.3525C57.0742 18.4832 57.082 18.6138 57.082 18.7443C57.082 19.2745 57.0015 19.7739 56.8403 20.2423C56.6792 20.711 56.4259 21.1297 56.0806 21.4983C55.7123 21.8902 55.2709 22.1939 54.7569 22.4088C54.2427 22.6237 53.6556 22.7314 52.9957 22.7314C52.3972 22.7314 51.833 22.6237 51.3036 22.4088C50.7741 22.1939 50.3136 21.8942 49.9223 21.5099C49.5308 21.1258 49.2201 20.6706 48.9899 20.1444C48.7596 19.6182 48.6445 19.044 48.6445 18.4217C48.6445 17.7994 48.7596 17.2252 48.9899 16.699C49.2201 16.1728 49.5308 15.7175 49.9223 15.3333C50.3136 14.9493 50.7741 14.6497 51.3036 14.4346C51.833 14.2195 52.3972 14.1118 52.9957 14.1118C53.6633 14.1118 54.26 14.227 54.7856 14.4575C55.3112 14.688 55.7621 15.0068 56.1382 15.414L55.0677 16.4626C54.7989 16.1786 54.4997 15.9613 54.1698 15.8116C53.8397 15.6617 53.4446 15.5869 52.9842 15.5869C52.6082 15.5869 52.2512 15.6542 51.9135 15.7885C51.5758 15.923 51.2805 16.1131 51.0273 16.3589C50.7741 16.6049 50.5726 16.9026 50.423 17.2519C50.2734 17.6016 50.1985 17.9915 50.1985 18.4217C50.1985 18.852 50.2734 19.2417 50.423 19.5913C50.5726 19.941 50.7758 20.2385 51.0331 20.4843C51.2901 20.7303 51.5875 20.9204 51.9252 21.0549C52.2627 21.1893 52.6233 21.2565 53.0071 21.2565C53.4446 21.2565 53.8148 21.1932 54.118 21.0663C54.421 20.9395 54.6802 20.7765 54.895 20.5765C55.0484 20.4382 55.1807 20.2636 55.2921 20.0522C55.4032 19.8411 55.4895 19.6047 55.5511 19.3435H52.9611V18.0183Z" fill="white"/>
<path d="M59.9251 15.7715V17.6843H63.2286V19.1594H59.9251V21.0724H63.597V22.5473H58.3711V14.2964H63.597V15.7715H59.9251Z" fill="white"/>
<path d="M66.7749 22.5473V15.7715H64.4727V14.2964H70.6311V15.7715H68.3289V22.5473H66.7749Z" fill="white"/>
<path d="M75.8216 14.2964H74.2676V22.5473H75.8216V14.2964Z" fill="white"/>
<path d="M79.23 22.5473V15.7715H76.9277V14.2964H83.0862V15.7715H80.784V22.5473H79.23Z" fill="white"/>
<path d="M90.395 22.7315C89.7811 22.7315 89.2113 22.62 88.6856 22.3973C88.1598 22.1746 87.7054 21.8693 87.3216 21.4812C86.9377 21.0933 86.6367 20.6362 86.4181 20.1098C86.1994 19.5838 86.0898 19.0208 86.0898 18.4217C86.0898 17.8223 86.1993 17.2597 86.4181 16.7335C86.6369 16.2073 86.9379 15.7503 87.3216 15.3622C87.7054 14.9743 88.1598 14.6689 88.6856 14.4461C89.2113 14.2233 89.7811 14.1118 90.395 14.1118C91.0088 14.1118 91.5788 14.2233 92.1046 14.4461C92.63 14.6689 93.0846 14.9743 93.4686 15.3622C93.8523 15.7503 94.1535 16.2073 94.3721 16.7335C94.5908 17.2597 94.7003 17.8223 94.7003 18.4217C94.7003 19.0208 94.5909 19.5838 94.3721 20.1098C94.1535 20.6362 93.8521 21.0933 93.4686 21.4812C93.0846 21.8693 92.63 22.1746 92.1046 22.3973C91.5788 22.62 91.0088 22.7315 90.395 22.7315ZM90.395 21.2565C90.7789 21.2565 91.1376 21.1873 91.4712 21.049C91.805 20.9108 92.0968 20.7188 92.3461 20.4728C92.5955 20.227 92.7912 19.9295 92.9332 19.5798C93.0751 19.2303 93.1462 18.8442 93.1462 18.4217C93.1462 17.9992 93.0751 17.6133 92.9332 17.2636C92.7912 16.914 92.5955 16.6165 92.3461 16.3705C92.0968 16.1247 91.805 15.9326 91.4712 15.7943C91.1375 15.656 90.7787 15.5869 90.395 15.5869C90.0113 15.5869 89.6526 15.656 89.3188 15.7943C88.985 15.9326 88.6933 16.1247 88.4439 16.3705C88.1944 16.6165 87.9988 16.914 87.857 17.2636C87.7149 17.6133 87.644 17.9992 87.644 18.4217C87.644 18.8442 87.7149 19.2303 87.857 19.5798C87.9988 19.9295 88.1944 20.227 88.4439 20.4728C88.6933 20.7188 88.985 20.9108 89.3188 21.049C89.6527 21.1873 90.0113 21.2565 90.395 21.2565Z" fill="white"/>
<path d="M95.9551 14.2964H97.7622L101.077 19.8277H101.17L101.077 18.2374V14.2964H102.62V22.5473H100.985L97.486 16.7049H97.3938L97.486 18.2951V22.5473H95.9551V14.2964Z" fill="white"/>
<path fill-rule="evenodd" clip-rule="evenodd" d="M36.6439 24.1073L16.4727 12.4893L32.4059 28.3575L36.6439 24.1073Z" fill="white"/>
<path fill-rule="evenodd" clip-rule="evenodd" d="M14.6002 12.6074C14.5233 12.7474 14.4395 12.9091 14.4395 13.0873V45.9636C14.4395 46.0667 14.4931 46.1639 14.5206 46.2553L31.3943 29.3331L14.6002 12.6074Z" fill="white"/>
<path fill-rule="evenodd" clip-rule="evenodd" d="M32.4081 30.3052L15.8652 46.8958C15.9135 46.8771 15.9615 46.8554 16.0085 46.8284L36.9107 34.7891L32.4081 30.3052Z" fill="white"/>
<path fill-rule="evenodd" clip-rule="evenodd" d="M44.5501 28.6603L37.8806 24.8188L33.3828 29.3295L38.1497 34.0768L44.5501 30.3904C45.2165 30.0068 45.2165 29.0441 44.5501 28.6603Z" fill="white"/>
</svg>
