<svg width="22" height="18" viewBox="0 0 22 18" fill="none" xmlns="http://www.w3.org/2000/svg">
<path fill-rule="evenodd" clip-rule="evenodd" d="M17.6666 0C18.2189 0 18.6666 0.447715 18.6666 1V15.597C18.6666 15.5971 18.6666 15.5969 18.6666 15.597C18.6667 16.1288 18.4902 16.6458 18.1648 17.0663C17.8394 17.487 17.3835 17.7876 16.8686 17.921C16.3538 18.0544 15.8093 18.0131 15.3205 17.8034C14.8318 17.5938 14.4266 17.2278 14.1684 16.763C14.1684 16.7629 14.1684 16.763 14.1684 16.763L6.08308 2.20828C6.04005 2.13079 5.97239 2.06957 5.89093 2.03463C5.80947 1.99969 5.71871 1.9928 5.63291 2.01503C5.5471 2.03727 5.47112 2.08737 5.41688 2.15748C5.36264 2.22759 5.33323 2.31373 5.33325 2.40236V17C5.33325 17.5523 4.88554 18 4.33325 18C3.78097 18 3.33325 17.5523 3.33325 17L3.33325 2.40297C3.33325 2.40287 3.33325 2.40307 3.33325 2.40297C3.33316 1.87125 3.50965 1.35424 3.83501 0.933679C4.16044 0.513038 4.61636 0.212401 5.13119 0.0789863C5.64601 -0.0544283 6.19057 -0.0130634 6.67933 0.196584C7.16802 0.4062 7.57326 0.772176 7.83142 1.23705C7.83146 1.23712 7.83139 1.23698 7.83142 1.23705L15.9168 15.7917C15.9598 15.8692 16.0274 15.9304 16.1089 15.9654C16.1904 16.0003 16.2811 16.0072 16.3669 15.985C16.4527 15.9627 16.5287 15.9126 16.583 15.8425C16.6372 15.7724 16.6666 15.6863 16.6666 15.5976L16.6666 1C16.6666 0.447715 17.1143 0 17.6666 0Z" fill="white"/>
<path fill-rule="evenodd" clip-rule="evenodd" d="M0.666626 6.33325C0.666626 5.78097 1.11434 5.33325 1.66663 5.33325H20.3333C20.8856 5.33325 21.3333 5.78097 21.3333 6.33325C21.3333 6.88554 20.8856 7.33325 20.3333 7.33325H1.66663C1.11434 7.33325 0.666626 6.88554 0.666626 6.33325Z" fill="white"/>
<path fill-rule="evenodd" clip-rule="evenodd" d="M0.666626 11.6667C0.666626 11.1145 1.11434 10.6667 1.66663 10.6667H20.3333C20.8856 10.6667 21.3333 11.1145 21.3333 11.6667C21.3333 12.219 20.8856 12.6667 20.3333 12.6667H1.66663C1.11434 12.6667 0.666626 12.219 0.666626 11.6667Z" fill="white"/>
</svg>
