<svg width="48" height="48" viewBox="0 0 48 48" fill="none" xmlns="http://www.w3.org/2000/svg">
<g clip-path="url(#clip0_1_793)">
<circle cx="24" cy="24" r="24" fill="white"/>
<path d="M39.7778 10.0146C38.3946 10.9933 36.863 11.7419 35.2422 12.2315C34.3723 11.2281 33.2162 10.5169 31.9302 10.1941C30.6442 9.87135 29.2904 9.95255 28.0519 10.4267C26.8134 10.9009 25.75 11.7452 25.0054 12.8455C24.2609 13.9457 23.8711 15.2488 23.8889 16.5784V18.0274C21.3505 18.0934 18.8352 17.5287 16.567 16.3835C14.2989 15.2383 12.3482 13.5481 10.8889 11.4635C10.8889 11.4635 5.11111 24.5043 18.1111 30.3003C15.1363 32.3259 11.5926 33.3416 8 33.1982C21 40.4431 36.8889 33.1982 36.8889 16.535C36.8876 16.1314 36.8489 15.7288 36.7733 15.3323C38.2475 13.8739 39.2879 12.0326 39.7778 10.0146V10.0146Z" stroke="#23B123" stroke-linecap="round" stroke-linejoin="round"/>
</g>
<defs>
<clipPath id="clip0_1_793">
<rect width="48" height="48" fill="white"/>
</clipPath>
</defs>
</svg>
